<svg xmlns="http://www.w3.org/2000/svg" viewBox="0 0 1200 900" font-family="'JetBrains Mono', ui-monospace, monospace">
  <defs>
    <pattern id="scan" width="1200" height="7" patternUnits="userSpaceOnUse">
      <rect width="1200" height="1.5" y="0" fill="rgba(242,240,234,0.035)"/>
    </pattern>
  </defs>
  <rect width="1200" height="900" fill="#0B0E0C"/>
  <rect width="1200" height="900" fill="url(#scan)"/>
  <g stroke="rgba(212,255,58,0.07)" stroke-width="1.5">
    <line x1="0" y1="520" x2="1200" y2="520"/>
    <line x1="0" y1="770" x2="1200" y2="770"/>
  </g>
  <text x="90" y="130" fill="#8A8A85" font-size="26" letter-spacing="10">YEAR 2093 — CLASSIFIED<tspan fill="#D4FF3A">_</tspan></text>
  <text x="86" y="266" fill="rgba(212,255,58,0.35)" font-size="96" font-weight="700" letter-spacing="4">HELIOS PROTOCOL</text>
  <text x="90" y="262" fill="#F2F0EA" font-size="96" font-weight="700" letter-spacing="4">HELIOS PROTOCOL</text>
  <text x="90" y="320" fill="#8A8A85" font-size="25" letter-spacing="6">BRANCHING NARRATIVE · QUICK-TIME EVENTS · MINI-GAMES</text>
  <g fill="none" stroke="#D4FF3A" stroke-width="4" stroke-linecap="round">
    <path d="M 140 620 H 460 C 560 620 580 500 690 490 L 950 470"/>
    <path d="M 460 620 C 590 620 640 620 950 620"/>
    <path d="M 460 620 C 560 620 580 740 690 750 L 950 770"/>
  </g>
  <circle cx="140" cy="620" r="16" fill="#D4FF3A"/>
  <text x="140" y="672" text-anchor="middle" fill="#8A8A85" font-size="22" letter-spacing="4">START</text>
  <circle cx="460" cy="620" r="13" fill="none" stroke="#D4FF3A" stroke-width="4"/>
  <text x="460" y="672" text-anchor="middle" fill="#8A8A85" font-size="22" letter-spacing="4">CHOICE</text>
  <circle cx="950" cy="470" r="12" fill="#F2F0EA"/>
  <text x="985" y="478" fill="#8A8A85" font-size="22" letter-spacing="4">ENDING_01</text>
  <circle cx="950" cy="620" r="12" fill="#F2F0EA"/>
  <text x="985" y="628" fill="#8A8A85" font-size="22" letter-spacing="4">ENDING_02</text>
  <circle cx="950" cy="770" r="12" fill="#F2F0EA"/>
  <text x="985" y="778" fill="#8A8A85" font-size="22" letter-spacing="4">ENDING_03</text>
  <rect x="90" y="400" width="560" height="58" rx="29" fill="#D4FF3A"/>
  <text x="370" y="437" text-anchor="middle" fill="#0B0B0B" font-size="24" font-weight="700" letter-spacing="2">1ST PLACE — PROMPT RACHNA 2.0</text>
</svg>
