<svg xmlns="http://www.w3.org/2000/svg" viewBox="0 0 1200 900" font-family="'JetBrains Mono', ui-monospace, monospace">
  <rect width="1200" height="900" fill="#141414"/>
  <g stroke="rgba(255,255,255,0.05)" stroke-width="2">
    <line x1="0" y1="225" x2="1200" y2="225"/>
    <line x1="0" y1="450" x2="1200" y2="450"/>
    <line x1="0" y1="675" x2="1200" y2="675"/>
    <line x1="300" y1="0" x2="300" y2="900"/>
    <line x1="600" y1="0" x2="600" y2="900"/>
    <line x1="900" y1="0" x2="900" y2="900"/>
  </g>
  <text x="90" y="150" fill="#8A8A85" font-size="30" letter-spacing="8">MONTHLY BUDGET</text>
  <text x="90" y="242" fill="#F2F0EA" font-size="92" font-weight="700">₹4,296</text>
  <text x="90" y="298" fill="#D4FF3A" font-size="30" letter-spacing="2">Remaining ₹5,704</text>
  <circle cx="850" cy="255" r="62" fill="#D4FF3A"/>
  <text x="850" y="282" text-anchor="middle" fill="#0B0B0B" font-size="72" font-weight="700">₹</text>
  <circle cx="985" cy="320" r="46" fill="#F2F0EA"/>
  <text x="985" y="342" text-anchor="middle" fill="#0B0B0B" font-size="54" font-weight="700">₹</text>
  <circle cx="1090" cy="245" r="52" fill="#D4FF3A"/>
  <text x="1090" y="269" text-anchor="middle" fill="#0B0B0B" font-size="60" font-weight="700">₹</text>
  <g fill="#D4FF3A" font-size="34" font-weight="700">
    <text x="785" y="530">+₹250</text>
    <text x="1075" y="505">+₹99</text>
    <text x="930" y="550">+₹450</text>
  </g>
  <rect x="90" y="700" width="1020" height="42" rx="21" fill="rgba(255,255,255,0.08)"/>
  <rect x="90" y="700" width="439" height="42" rx="21" fill="#D4FF3A"/>
  <text x="90" y="792" fill="#8A8A85" font-size="28" letter-spacing="4">43% USED</text>
</svg>
